<svg xmlns="http://www.w3.org/2000/svg" width="133" height="36" viewBox="0 0 133 36" fill="none">
<path fill-rule="evenodd" clip-rule="evenodd" d="M0 18.1065C0 27.9411 8.05887 36 18.1065 36C27.9411 36 36 27.9411 36 18.1065C36 8.05887 27.9411 0 18.1065 0C8.05887 0 0 8.05887 0 18.1065ZM33.7263 18.1065C33.7263 26.6854 26.6854 33.7263 18.1065 33.7263C9.34353 33.7263 2.27368 26.714 2.27368 18.1065C2.27368 9.3146 9.3146 2.27368 18.1065 2.27368C26.714 2.27368 33.7263 9.34353 33.7263 18.1065Z" fill="white"/>
<path fill-rule="evenodd" clip-rule="evenodd" d="M16.6359 34.7904C18.8195 35.0437 20.6187 34.6644 21.2437 34.486C21.5288 34.4046 22.5941 34.144 22.8452 34.0596C23.6863 33.777 24.9699 33.1782 25.7013 32.7418C26.7957 32.0887 27.5685 31.4007 28.6388 30.4354C31.015 28.2924 32.625 24.3249 32.625 23.92C32.625 23.8287 28.2146 20.5068 26.9191 19.5329C26.7151 19.3796 26.4318 19.4032 26.253 19.5853C26.0843 19.7571 26.0583 20.0226 26.1911 20.2234C26.6343 20.894 27.5743 22.3246 27.6195 22.4617C27.792 22.9849 27.5465 23.2804 27.3009 23.1231C27.0553 22.9658 21.5646 19.2672 21.5646 19.2672L18.2802 16.9963C17.8686 16.7117 17.3068 17.0063 17.3068 17.5066C17.3068 17.5066 17.1957 19.1166 17.1957 20.1676C17.1957 20.5941 17.1518 21.1118 16.6359 21.246C16.3774 21.3132 15.7234 21.3527 15.7234 21.3527L10.1751 20.9334C9.7985 20.905 9.58735 21.358 9.85127 21.6281C9.85127 21.6281 17.1957 26.5849 17.1957 26.9884C17.1957 27.846 14.552 26.4718 12.4773 25.4639C9.95207 24.2372 7.1464 23.1341 6.44733 22.8633C6.34241 22.8227 6.22786 22.8316 6.13032 22.8877C5.52896 23.2335 3.35693 24.4869 3.37514 24.5407C4.08779 26.6437 5.97805 29.7235 8.84189 31.7745C9.98699 32.5946 11.3079 33.3606 12.5939 33.8365C14.0645 34.3806 15.6064 34.7904 16.6359 34.7904Z" fill="white"/>
<path d="M46.0791 25V12.9141H50.3125C51.779 12.9141 52.8913 13.1963 53.6494 13.7607C54.4076 14.3197 54.7866 15.1414 54.7866 16.2261C54.7866 16.8182 54.6344 17.3411 54.3301 17.7949C54.0257 18.2432 53.6024 18.5724 53.0601 18.7827C53.6799 18.9377 54.1668 19.2503 54.521 19.7207C54.8807 20.1911 55.0605 20.7666 55.0605 21.4473C55.0605 22.6094 54.6898 23.4893 53.9482 24.0869C53.2067 24.6846 52.1497 24.9889 50.7773 25H46.0791ZM48.5693 19.7373V22.9995H50.7026C51.2892 22.9995 51.7458 22.8612 52.0723 22.5845C52.4043 22.3022 52.5703 21.9149 52.5703 21.4224C52.5703 20.3156 51.9976 19.7539 50.8521 19.7373H48.5693ZM48.5693 17.9775H50.4121C51.6683 17.9554 52.2964 17.4546 52.2964 16.4751C52.2964 15.9272 52.1359 15.5343 51.8149 15.2964C51.4995 15.0529 50.9987 14.9312 50.3125 14.9312H48.5693V17.9775ZM59.5845 25H57.0942V12.9141H59.5845V25ZM67.1216 24.0869C66.5295 24.8063 65.7104 25.166 64.6646 25.166C63.7017 25.166 62.9657 24.8893 62.4565 24.3359C61.953 23.7826 61.6956 22.9718 61.6846 21.9038V16.0186H64.0835V21.8208C64.0835 22.756 64.5096 23.2236 65.3618 23.2236C66.1753 23.2236 66.7342 22.9414 67.0386 22.377V16.0186H69.4458V25H67.188L67.1216 24.0869ZM82.4697 22.5098H78.1035L77.2734 25H74.6255L79.1245 12.9141H81.4321L85.9561 25H83.3081L82.4697 22.5098ZM78.7759 20.4927H81.7974L80.2783 15.9688L78.7759 20.4927ZM91.7915 22.5181C91.7915 22.2248 91.6449 21.9951 91.3516 21.8291C91.0638 21.6576 90.599 21.5054 89.957 21.3726C87.821 20.9243 86.7529 20.0168 86.7529 18.6499C86.7529 17.853 87.0822 17.189 87.7407 16.6577C88.4048 16.1209 89.2708 15.8525 90.3389 15.8525C91.4788 15.8525 92.3892 16.1209 93.0698 16.6577C93.756 17.1945 94.0991 17.8918 94.0991 18.7495H91.7002C91.7002 18.4064 91.5895 18.1242 91.3682 17.9028C91.1468 17.6759 90.8009 17.5625 90.3306 17.5625C89.9266 17.5625 89.6139 17.6538 89.3926 17.8364C89.1712 18.019 89.0605 18.2515 89.0605 18.5337C89.0605 18.7993 89.1851 19.0151 89.4341 19.1812C89.6886 19.3416 90.1147 19.4827 90.7124 19.6045C91.3101 19.7207 91.8136 19.8535 92.2231 20.0029C93.4904 20.4678 94.124 21.2729 94.124 22.4185C94.124 23.2375 93.7726 23.9015 93.0698 24.4106C92.367 24.9142 91.4595 25.166 90.3472 25.166C89.5946 25.166 88.925 25.0332 88.3384 24.7676C87.7573 24.4964 87.3008 24.1284 86.9688 23.6636C86.6367 23.1932 86.4707 22.6868 86.4707 22.1445H88.7451C88.7673 22.5706 88.925 22.8971 89.2183 23.124C89.5116 23.3509 89.9045 23.4644 90.397 23.4644C90.8563 23.4644 91.2021 23.3786 91.4346 23.207C91.6725 23.0299 91.7915 22.8003 91.7915 22.5181ZM100.541 22.5181C100.541 22.2248 100.394 21.9951 100.101 21.8291C99.8128 21.6576 99.348 21.5054 98.7061 21.3726C96.57 20.9243 95.502 20.0168 95.502 18.6499C95.502 17.853 95.8312 17.189 96.4897 16.6577C97.1538 16.1209 98.0199 15.8525 99.0879 15.8525C100.228 15.8525 101.138 16.1209 101.819 16.6577C102.505 17.1945 102.848 17.8918 102.848 18.7495H100.449C100.449 18.4064 100.339 18.1242 100.117 17.9028C99.8958 17.6759 99.55 17.5625 99.0796 17.5625C98.6756 17.5625 98.363 17.6538 98.1416 17.8364C97.9202 18.019 97.8096 18.2515 97.8096 18.5337C97.8096 18.7993 97.9341 19.0151 98.1831 19.1812C98.4377 19.3416 98.8638 19.4827 99.4614 19.6045C100.059 19.7207 100.563 19.8535 100.972 20.0029C102.239 20.4678 102.873 21.2729 102.873 22.4185C102.873 23.2375 102.522 23.9015 101.819 24.4106C101.116 24.9142 100.208 25.166 99.0962 25.166C98.3436 25.166 97.674 25.0332 97.0874 24.7676C96.5063 24.4964 96.0498 24.1284 95.7178 23.6636C95.3857 23.1932 95.2197 22.6868 95.2197 22.1445H97.4941C97.5163 22.5706 97.674 22.8971 97.9673 23.124C98.2606 23.3509 98.6535 23.4644 99.146 23.4644C99.6053 23.4644 99.9512 23.3786 100.184 23.207C100.422 23.0299 100.541 22.8003 100.541 22.5181ZM106.957 25H104.55V16.0186H106.957V25ZM104.409 13.6943C104.409 13.3346 104.528 13.0386 104.766 12.8062C105.009 12.5737 105.338 12.4575 105.753 12.4575C106.163 12.4575 106.489 12.5737 106.733 12.8062C106.976 13.0386 107.098 13.3346 107.098 13.6943C107.098 14.0596 106.974 14.3584 106.725 14.5908C106.481 14.8232 106.157 14.9395 105.753 14.9395C105.349 14.9395 105.023 14.8232 104.774 14.5908C104.53 14.3584 104.409 14.0596 104.409 13.6943ZM113.805 22.5181C113.805 22.2248 113.659 21.9951 113.365 21.8291C113.077 21.6576 112.613 21.5054 111.971 21.3726C109.835 20.9243 108.767 20.0168 108.767 18.6499C108.767 17.853 109.096 17.189 109.754 16.6577C110.418 16.1209 111.285 15.8525 112.353 15.8525C113.493 15.8525 114.403 16.1209 115.083 16.6577C115.77 17.1945 116.113 17.8918 116.113 18.7495H113.714C113.714 18.4064 113.603 18.1242 113.382 17.9028C113.16 17.6759 112.815 17.5625 112.344 17.5625C111.94 17.5625 111.628 17.6538 111.406 17.8364C111.185 18.019 111.074 18.2515 111.074 18.5337C111.074 18.7993 111.199 19.0151 111.448 19.1812C111.702 19.3416 112.128 19.4827 112.726 19.6045C113.324 19.7207 113.827 19.8535 114.237 20.0029C115.504 20.4678 116.138 21.2729 116.138 22.4185C116.138 23.2375 115.786 23.9015 115.083 24.4106C114.381 24.9142 113.473 25.166 112.361 25.166C111.608 25.166 110.939 25.0332 110.352 24.7676C109.771 24.4964 109.314 24.1284 108.982 23.6636C108.65 23.1932 108.484 22.6868 108.484 22.1445H110.759C110.781 22.5706 110.939 22.8971 111.232 23.124C111.525 23.3509 111.918 23.4644 112.411 23.4644C112.87 23.4644 113.216 23.3786 113.448 23.207C113.686 23.0299 113.805 22.8003 113.805 22.5181ZM120.562 13.8105V16.0186H122.098V17.7783H120.562V22.2607C120.562 22.5928 120.626 22.8307 120.753 22.9746C120.88 23.1185 121.124 23.1904 121.483 23.1904C121.749 23.1904 121.984 23.1711 122.189 23.1323V24.9502C121.719 25.0941 121.234 25.166 120.736 25.166C119.054 25.166 118.196 24.3166 118.163 22.6177V17.7783H116.852V16.0186H118.163V13.8105H120.562Z" fill="white"/>
</svg>